# xmcd
#
# Track frame offsets: 
#        150
#        18150
#        38933
#        80723
#        97958
#        123293
#        143821
#        177961
#        214621
#
# Disc length: 3182 seconds
#
# Revision: 0
# Processed by: cddbd v1.5.2PL0 Copyright (c) Steve Scherf et al.
# Submitted via: ExactAudioCopy v1.0b4
#
DISCID=700c6c09
DTITLE=Harper - Live At The Soup Kitchen
DYEAR=2016
DGENRE=Blues Rock
TTITLE0=I Haven't Felt This Good In A L
TTITLE1=Borderline
TTITLE2=Help Me
TTITLE3=World Goes Round
TTITLE4=Blue Steel And Ice
TTITLE5=Why
TTITLE6=Use Me
TTITLE7=Tears Of Ice
TTITLE8=Don't Hold Back
EXTD=
EXTT0=
EXTT1=
EXTT2=
EXTT3=
EXTT4=
EXTT5=
EXTT6=
EXTT7=
EXTT8=
PLAYORDER=
